<?xml version="1.0" encoding="UTF-8"?>
<svg id="Calque_1" data-name="Calque 1" xmlns="http://www.w3.org/2000/svg" viewBox="0 0 4770.5 1462">
  <defs>
    <style>
      .cls-1 {
        fill: #054f64;
      }
    </style>
  </defs>
  <path class="cls-1" d="M1034.15,1281.69l-416.07-1019.88h-109.67L83.57,1281.69h132.76l342.53-853.69,221.2,542.87c-82.49-43.98-149.96-32.22-149.96-32.22l-48.53,120.64c202.47-23.62,298.79,161.1,320.27,210.48l4.86,11.93h127.45Z"/>
  <g>
    <path class="cls-1" d="M1659.25,1032.93c0,17.31-4.37,32.58-13.08,45.81-8.72,13.23-20.89,24.33-36.49,33.31-15.61,8.99-34.54,15.85-56.8,20.58-22.27,4.74-46.71,7.1-73.32,7.1h-88.81v129.33h-60.59v-342.93h149.4c26.62,0,51.05,2.37,73.32,7.1,22.26,4.74,41.19,11.6,56.8,20.58,15.6,8.99,27.77,20.17,36.49,33.56,8.71,13.4,13.08,28.58,13.08,45.56ZM1597.29,1032.93c0-23.52-9.98-40.82-29.95-51.93-19.96-11.1-50.84-16.66-92.6-16.66h-83.99v137.17h83.99c41.76,0,72.63-5.55,92.6-16.66,19.97-11.1,29.95-28.41,29.95-51.93Z"/>
    <path class="cls-1" d="M1897.45,926.13l185.89,342.93h-66.78l-45.44-88.67h-213.43l-45.44,88.67h-66.78l185.89-342.93h66.09ZM1776.97,1142.18h174.87l-87.43-170.98-87.44,170.98Z"/>
    <path class="cls-1" d="M2476.45,1026.07c0,25.15-9.98,45.48-29.95,60.99-19.97,15.52-45.78,26.54-77.45,33.07l137.01,148.93h-69.53l-130.12-143.05h-103.96v143.05h-60.59v-342.93h160.41c24.32,0,47.16,2.13,68.5,6.37,21.34,4.25,39.81,10.53,55.42,18.86,15.6,8.33,27.88,18.78,36.83,31.35,8.95,12.58,13.42,27.03,13.42,43.36ZM2414.49,1026.07c0-41.15-38.79-61.73-116.35-61.73h-95.7v123.45h95.7c77.56,0,116.35-20.58,116.35-61.73Z"/>
    <path class="cls-1" d="M2669.9,964.34h-150.08v-38.21h360.76v38.21h-150.08v304.72h-60.59v-304.72Z"/>
    <path class="cls-1" d="M2942.53,926.13h72.29l247.16,289.53v-289.53h57.83v342.93h-72.29l-247.16-289.53v289.53h-57.83v-342.93Z"/>
    <path class="cls-1" d="M3429.96,926.13h300.17v38.21h-239.59v108.76h222.38v38.21h-222.38v119.53h245.78v38.21h-306.37v-342.93Z"/>
    <path class="cls-1" d="M4153.54,1026.07c0,25.15-9.99,45.48-29.95,60.99-19.96,15.52-45.78,26.54-77.45,33.07l137,148.93h-69.53l-130.12-143.05h-103.96v143.05h-60.59v-342.93h160.41c24.32,0,47.16,2.13,68.5,6.37,21.34,4.25,39.81,10.53,55.42,18.86,15.6,8.33,27.88,18.78,36.83,31.35,8.95,12.58,13.43,27.03,13.43,43.36ZM4091.58,1026.07c0-41.15-38.79-61.73-116.35-61.73h-95.7v123.45h95.7c77.56,0,116.35-20.58,116.35-61.73Z"/>
    <path class="cls-1" d="M4500.52,978.55c-16.99-6.86-35.35-11.76-55.08-14.7-19.74-2.94-38.79-4.41-57.14-4.41-34.89,0-60.59,4.41-77.11,13.23-16.53,8.82-24.79,20.58-24.79,35.27s7.57,25.97,22.72,35.76c15.15,9.8,39.47,18.95,72.98,27.43,26.62,6.54,49.45,13.31,68.51,20.33,19.04,7.03,34.53,14.87,46.47,23.52,11.93,8.66,20.76,18.21,26.5,28.66,5.73,10.46,8.61,22.21,8.61,35.27,0,30.7-15.04,54.38-45.1,71.04-30.07,16.66-72.87,24.98-128.4,24.98-49.12,0-92.94-7.51-131.5-22.54l5.51-45.07c18.82,9.48,39.47,16.58,61.96,21.31,22.48,4.74,45.44,7.1,68.85,7.1,34.88,0,61.38-4.73,79.52-14.21,18.13-9.47,27.19-22.86,27.19-40.17,0-15.68-7.69-29.06-23.06-40.17-15.38-11.1-42.58-21.07-81.59-29.88-47.74-10.78-83.2-24.33-106.37-40.66-23.18-16.33-34.77-37.23-34.77-62.71,0-27.1,14.46-48.5,43.37-64.18,28.91-15.68,69.76-23.51,122.55-23.51,18.81,0,38.55,1.22,59.21,3.67,20.65,2.45,39.24,6.29,55.77,11.51l-4.82,43.11Z"/>
  </g>
  <path class="cls-1" d="M2256.55,856.29c-49.68,0-93.47-11.61-131.38-34.82-37.92-23.21-67.45-55.16-88.63-95.86-21.18-40.69-31.76-86.54-31.76-137.56V248.47h84.71v334.43c0,34.97,7.45,66.35,22.36,94.14,14.9,27.81,35.02,49.58,60.39,65.34,25.36,15.77,53.46,23.64,84.32,23.64,32.42,0,61.57-7.87,87.45-23.64,25.88-15.76,46.28-37.53,61.18-65.34,14.9-27.79,22.36-59.17,22.36-94.14V248.47h80.79v339.59c0,51.02-10.59,96.87-31.76,137.56-21.18,40.7-50.73,72.65-88.63,95.86-37.92,23.21-81.71,34.82-131.38,34.82Z"/>
  <path class="cls-1" d="M2668.32,851.13V249.33h250.21c45.49,0,85.88,7.6,121.18,22.78,35.3,15.19,65.22,36.54,89.81,64.05,24.57,27.51,43.14,59.47,55.69,95.86,12.55,36.4,18.82,75.8,18.82,118.21s-6.28,82.83-18.82,119.5c-12.55,36.69-30.98,68.5-55.3,95.43-24.31,26.95-54.25,48.01-89.81,63.19-35.57,15.19-76.08,22.78-121.57,22.78h-250.21ZM2753.03,771.18l-2.35-9.46h163.93c33.98,0,63.65-5.16,89.02-15.47,25.36-10.32,46.28-24.93,62.75-43.85,16.47-18.91,28.75-41.27,36.86-67.06,8.1-25.79,12.16-54.16,12.16-85.11s-4.06-58.31-12.16-83.82c-8.11-25.5-20.53-47.85-37.26-67.06-16.74-19.2-37.65-34.09-62.75-44.71-25.1-10.6-54.65-15.9-88.63-15.9h-166.28l4.71-7.74v440.18Z"/>
  <path class="cls-1" d="M3575.01,856.29c-49.68,0-93.47-11.61-131.38-34.82-37.92-23.21-67.45-55.16-88.63-95.86-21.18-40.69-31.76-86.54-31.76-137.56V248.47h84.71v334.43c0,34.97,7.45,66.35,22.36,94.14,14.9,27.81,35.02,49.58,60.39,65.34,25.36,15.77,53.46,23.64,84.32,23.64,32.42,0,61.57-7.87,87.45-23.64,25.88-15.76,46.28-37.53,61.18-65.34,14.9-27.79,22.36-59.17,22.36-94.14V248.47h80.79v339.59c0,51.02-10.59,96.87-31.76,137.56-21.18,40.7-50.73,72.65-88.63,95.86-37.92,23.21-81.71,34.82-131.38,34.82Z"/>
  <path class="cls-1" d="M1817.32,851.13h91.77l-242.36-601.81h-84.99l35.46,97.46c.16-.49.33-.97.49-1.46.27.81.53,1.61.8,2.44,4.43,13.47,9.14,27.23,14.12,41.27.48,1.37.97,2.73,1.45,4.09l20.66,56.79c1.44,3.4,2.83,6.47,4.17,9.18l63.93,158.19h-210.32l62.47-154.75c4.18-10.32,8.63-21.63,13.33-33.96,3.21-8.4,6.42-17.09,9.63-26.02l-40.96-112.57-226.72,561.14h87.85l58.3-144.43h282.55l58.37,144.43Z"/>
  <polygon class="cls-1" points="418.13 1281.69 628.57 756.29 613.57 721.29 384.35 1281.69 418.13 1281.69"/>
  <polygon class="cls-1" points="372.57 1281.29 606.57 700.29 590.57 659.29 338.57 1281.29 372.57 1281.29"/>
  <polygon class="cls-1" points="324.57 1281.29 581.57 643.29 566.57 604.29 290.57 1281.29 324.57 1281.29"/>
  <polygon class="cls-1" points="705.95 261.81 833 262 1248 1282 1122 1282 705.95 261.81"/>
  <path class="cls-1" d="M4332.64,608.66l-285.43-366.67h-80.79v601.81h84.71v-250.18c0-8.52-.17-17.67-.49-27.43v-172.9l353,450.38,101.62.13.38-.13-173-235Z"/>
  <polygon class="cls-1" points="4429.64 673.33 4506.64 779.33 4509.26 243.66 4431.64 243.66 4429.64 673.33"/>
</svg>